{"title":"The.Golden.Compass.2007.BRrip.x264.AC3.[KSTE]","uid":7938040,"size":1704789267,"categoryP":"video","categoryS":"hd___movies","magnet":"?xt=urn:btih:9729c27fbd48d3b512555335476fdf445e99c880&amp;dn=The.Golden.Compass.2007.BRrip.x264.AC3.%5BKSTE%5D&amp;tr=udp%3A%2F%2Ftracker.openbittorrent.com%3A80&amp;tr=udp%3A%2F%2Fopen.demonii.com%3A1337&amp;tr=udp%3A%2F%2Ftracker.coppersurfer.tk%3A6969&amp;tr=udp%3A%2F%2Fexodus.desync.com%3A6969","seeders":2,"leechers":0,"uploader":"jessketeer","files":-1,"time":1355914126,"description":"Eng &amp; VNese sub\n\n\nFormat                                   : Matroska\nFormat version                           : Version 2\nFile size                                : 1.59 GiB\nDuration                                 : 1h 53mn\nOverall bit rate                         : 2 002 Kbps\nEncoded date                             : UTC 2012-12-19 08:56:51\nWriting application                      : mkvmerge v5.6.0 ('Kenya Kane') built on May 27 2012 16:44:04\nWriting library                          : libebml v1.2.3 + libmatroska v1.3.0\n\nVideo\nID                                       : 1\nFormat                                   : AVC\nFormat/Info                              : Advanced Video Codec\nFormat profile                           : &lt;a class=&quot;__cf_email__&quot; href=&quot;/cdn-cgi/l/email-protection&quot; data-cfemail=&quot;6c24050b042c2058425d&quot;&gt;[email&amp;#160;protected]&lt;/a&gt;&lt;script cf-hash='f9e31' type=&quot;text/javascript&quot;&gt;\n/* &lt;![CDATA[ */!function(){try{var t=&quot;currentScript&quot;in document?document.currentScript:function(){for(var t=document.getElementsByTagName(&quot;script&quot;),e=t.length;e--;)if(t[e].getAttribute(&quot;cf-hash&quot;))return t[e]}();if(t&amp;&amp;t.previousSibling){var e,r,n,i,c=t.previousSibling,a=c.getAttribute(&quot;data-cfemail&quot;);if(a){for(e=&quot;&quot;,r=parseInt(a.substr(0,2),16),n=2;a.length-n;n+=2)i=parseInt(a.substr(n,2),16)^r,e+=String.fromCharCode(i);e=document.createTextNode(e),c.parentNode.replaceChild(e,c)}}}catch(u){}}();/* ]]&gt; */&lt;/script&gt;\nFormat settings, CABAC                   : Yes\nFormat settings, ReFrames                : 4 frames\nCodec ID                                 : V_MPEG4/ISO/AVC\nDuration                                 : 1h 53mn\nBit rate                                 : 1 680 Kbps\nWidth                                    : 1 280 pixels\nHeight                                   : 536 pixels\nDisplay aspect ratio                     : 2.40:1\nFrame rate mode                          : Constant\nFrame rate                               : 25.000 fps\nColor space                              : YUV\nChroma subsampling                       : 4:2:0\nBit depth                                : 8 bits\nScan type                                : Progressive\nBits/(Pixel*Frame)                       : 0.098\nStream size                              : 1.30 GiB (82%)\nWriting library                          : x264 core 125 r2200 999b753\n\n\nAudio\nID                                       : 2\nFormat                                   : AC-3\nFormat/Info                              : Audio Coding 3\nMode extension                           : CM (complete main)\nFormat settings, Endianness              : Big\nCodec ID                                 : A_AC3\nDuration                                 : 1h 53mn\nBit rate mode                            : Constant\nBit rate                                 : 320 Kbps\nChannel(s)                               : 2 channels\nChannel positions                        : Front: L R\nSampling rate                            : 44.1 KHz\nBit depth                                : 16 bits\nCompression mode                         : Lossy\nStream size                              : 260 MiB (16%)\nDefault                                  : Yes\nForced                                   : No\n\n","torrent":{"xt":"urn:btih:9729c27fbd48d3b512555335476fdf445e99c880","amp;dn":"The.Golden.Compass.2007.BRrip.x264.AC3.%5BKSTE%5D","amp;tr":["udp%3A%2F%2Ftracker.openbittorrent.com%3A80","udp%3A%2F%2Fopen.demonii.com%3A1337","udp%3A%2F%2Ftracker.coppersurfer.tk%3A6969","udp%3A%2F%2Fexodus.desync.com%3A6969"],"infoHash":"9729c27fbd48d3b512555335476fdf445e99c880","infoHashBuffer":{"type":"Buffer","data":[151,41,194,127,189,72,211,181,18,85,83,53,71,111,223,68,94,153,200,128]},"announce":[],"urlList":[]}}